# File created by Blade
# Date/Time:  Tue Jan 27 19:00:36 2015
# Frame Rate: 120.000 fps
#------------------------------------------------------
:FULLY-SPECIFIED
:DEGREES
2931
root -2.338868 31.817359 -4.780880 12.744757 -37.788887 -10.977376
Spine 5.527958 1.378199 -0.914880
Head 5.523781 19.702439 10.591028
LeftShoulder -19.139815 20.207745 12.828000
LeftArm -4.144851 -40.511385 -77.496517
LeftForeArm -0.183367 -0.000000 104.662049
LeftHand -13.811835 0.000000 30.034240
LeftHandThumb1 -26.253704 0.000000 33.147579
RightShoulder -9.453553 -0.924448 -11.598517
RightArm 1.436576 -1.419871 71.563795
RightForeArm -36.060387 0.000000 56.240203
RightHand -18.368295 0.000000 4.338437
RightHandThumb1 -24.326973 -0.000000 -32.862282
LeftUpLeg -11.247504 11.803890 -4.604885
LeftLeg 16.862319 -0.000000 -0.000000
LeftFoot -26.350373 28.471446 -11.373580
LeftToeBase 10.805064 -0.000000 -0.000000
RightUpLeg -58.548924 -42.397241 16.551267
RightLeg 78.951100 -0.000000 -0.000000
RightFoot -14.432436 -25.646883 14.069423
RightToeBase -1.067812 -0.000000 0.000000
2932
root -2.346075 31.817976 -4.774107 12.759233 -37.869627 -10.986406
Spine 5.540264 1.364016 -0.941766
Head 5.620348 19.753004 10.650794
LeftShoulder -19.196842 20.234321 12.791659
LeftArm -4.173756 -40.639744 -77.380676
LeftForeArm -0.150041 0.000000 104.501851
LeftHand -13.827480 -0.000000 30.142986
LeftHandThumb1 -26.253704 0.000000 33.147579
RightShoulder -9.476412 -0.961433 -11.625395
RightArm 1.302758 -1.067424 71.540044
RightForeArm -36.049668 -0.000000 56.142488
RightHand -18.561190 -0.000000 4.123070
RightHandThumb1 -24.326973 -0.000000 -32.862282
LeftUpLeg -11.271688 11.853877 -4.598333
LeftLeg 16.948806 -0.000000 -0.000000
LeftFoot -26.437042 28.456206 -11.438987
LeftToeBase 10.951636 -0.000000 -0.000000
RightUpLeg -58.418949 -42.332635 16.400497
RightLeg 78.903605 -0.000000 -0.000000
RightFoot -14.413760 -25.670650 14.040657
RightToeBase -1.039805 -0.000000 0.000000
2933
root -2.355582 31.817542 -4.765159 12.755510 -37.959506 -10.983921
Spine 5.556601 1.342632 -0.983993
Head 5.730323 19.827250 10.735709
LeftShoulder -19.270394 20.283322 12.732901
LeftArm -4.174477 -40.779948 -77.241191
LeftForeArm -0.248586 -0.000000 104.353731
LeftHand -13.835533 -0.000000 30.373744
LeftHandThumb1 -26.253704 0.000000 33.147579
RightShoulder -9.486694 -1.002020 -11.661067
RightArm 1.158387 -0.763365 71.543588
RightForeArm -36.054312 -0.000000 56.058024
RightHand -18.586366 -0.000000 3.971221
RightHandThumb1 -24.326973 -0.000000 -32.862282
LeftUpLeg -11.268884 11.905080 -4.598595
LeftLeg 17.024617 -0.000000 -0.000000
LeftFoot -26.573660 28.396035 -11.662545
LeftToeBase 11.039245 -0.000000 -0.000000
RightUpLeg -58.243545 -42.232903 16.189493
RightLeg 78.867698 -0.000000 -0.000000
RightFoot -14.380316 -25.734388 13.983837
RightToeBase -1.068814 -0.000000 0.000000
2934
root -2.365513 31.817514 -4.761183 12.802174 -38.058705 -11.010241
Spine 5.546811 1.361107 -1.014186
Head 5.785655 19.876837 10.799013
LeftShoulder -19.297369 20.328148 12.701580
LeftArm -4.246833 -40.888825 -77.071541
LeftForeArm -0.314928 0.000000 104.228627
LeftHand -13.746280 -0.000000 30.527486
LeftHandThumb1 -26.253704 0.000000 33.147579
RightShoulder -9.518632 -1.041014 -11.685274
RightArm 1.007759 -0.436834 71.624169
RightForeArm -35.938010 -0.000000 55.992204
RightHand -18.694537 -0.000000 3.883926
RightHandThumb1 -24.326973 -0.000000 -32.862282
LeftUpLeg -11.313679 11.981667 -4.584474
LeftLeg 17.113515 -0.000000 -0.000000
LeftFoot -26.697549 28.367495 -11.812213
LeftToeBase 11.154591 -0.000000 -0.000000
RightUpLeg -58.130975 -42.139174 16.057738
RightLeg 78.833978 -0.000000 -0.000000
RightFoot -14.359217 -25.802583 13.946079
RightToeBase -1.043899 -0.000000 0.000000
2935
root -2.375117 31.816559 -4.758320 12.843431 -38.152572 -11.038655
Spine 5.552653 1.376656 -1.039595
Head 5.821899 19.883219 10.863992
LeftShoulder -19.315893 20.401939 12.650003
LeftArm -4.341871 -40.985064 -76.881068
LeftForeArm -0.435887 -0.000000 104.162905
LeftHand -13.728480 -0.000000 30.599513
LeftHandThumb1 -26.253704 0.000000 33.147579
RightShoulder -9.559430 -1.103384 -11.696184
RightArm 0.883769 -0.246021 71.677406
RightForeArm -35.781182 0.000000 55.932121
RightHand -18.757278 -0.000000 3.693927
RightHandThumb1 -24.326973 -0.000000 -32.862282
LeftUpLeg -11.356098 12.043301 -4.566085
LeftLeg 17.210888 -0.000000 -0.000000
LeftFoot -26.843681 28.266392 -12.117640
LeftToeBase 10.987481 -0.000000 -0.000000
RightUpLeg -58.018071 -42.074230 15.915654
RightLeg 78.822955 -0.000000 -0.000000
RightFoot -14.357755 -25.781547 13.991061
RightToeBase -0.971693 -0.000000 0.000000
2936
root -2.384096 31.815314 -4.757510 12.877399 -38.257573 -11.079602
Spine 5.584812 1.402177 -1.060470
Head 5.832264 19.895025 10.929296
LeftShoulder -19.352711 20.426590 12.617260
LeftArm -4.446418 -41.071938 -76.707803
LeftForeArm -0.562948 -0.000000 104.108905
LeftHand -13.783168 -0.000000 30.865390
LeftHandThumb1 -26.253704 0.000000 33.147579
RightShoulder -9.569512 -1.127846 -11.705123
RightArm 0.698856 -0.091818 71.747457
RightForeArm -35.632723 -0.000000 55.911389
RightHand -18.789622 -0.000000 3.541466
RightHandThumb1 -24.326973 -0.000000 -32.862282
LeftUpLeg -11.387821 12.100526 -4.537762
LeftLeg 17.301604 -0.000000 -0.000000
LeftFoot -26.979770 28.261376 -12.271502
LeftToeBase 11.091152 -0.000000 -0.000000
RightUpLeg -57.871217 -41.997499 15.776168
RightLeg 78.778156 -0.000000 -0.000000
RightFoot -14.358879 -25.882102 13.949844
RightToeBase -1.153994 -0.000000 0.000000
2937
root -2.394066 31.813607 -4.754953 12.926914 -38.373003 -11.122975
Spine 5.588160 1.443163 -1.079399
Head 5.851405 19.902456 10.974651
LeftShoulder -19.413330 20.477542 12.587261
LeftArm -4.512008 -41.143817 -76.579892
LeftForeArm -0.694118 -0.000000 104.061071
LeftHand -13.711844 -0.000000 30.504458
LeftHandThumb1 -26.253704 0.000000 33.147579
RightShoulder -9.599190 -1.179300 -11.710012
RightArm 0.535286 0.029272 71.845407
RightForeArm -35.467067 -0.000000 55.885130
RightHand -18.641086 -0.000000 3.524074
RightHandThumb1 -24.326973 -0.000000 -32.862282
LeftUpLeg -11.411710 12.130104 -4.510176
LeftLeg 17.348907 -0.000000 -0.000000
LeftFoot -27.087421 28.308494 -12.379247
LeftToeBase 11.156425 -0.000000 -0.000000
RightUpLeg -57.732483 -41.921429 15.644145
RightLeg 78.745743 -0.000000 -0.000000
RightFoot -14.416913 -25.953963 13.940449
RightToeBase -1.047421 -0.000000 0.000000
2938
root -2.404064 31.811808 -4.751405 12.989904 -38.497959 -11.174698
Spine 5.582789 1.499049 -1.089182
Head 5.879194 19.883937 11.020281
LeftShoulder -19.491869 20.548213 12.537061
LeftArm -4.457656 -41.262539 -76.564855
LeftForeArm -0.818036 -0.000000 104.029546
LeftHand -13.699631 -0.000000 30.503673
LeftHandThumb1 -26.253704 0.000000 33.147579
RightShoulder -9.633339 -1.241239 -11.695488
RightArm 0.387631 0.130346 71.948732
RightForeArm -35.358497 -0.000000 55.873173
RightHand -18.538763 -0.000000 3.631052
RightHandThumb1 -24.326973 -0.000000 -32.862282
LeftUpLeg -11.434772 12.130180 -4.480567
LeftLeg 17.391281 -0.000000 -0.000000
LeftFoot -27.194751 28.391089 -12.488564
LeftToeBase 11.185238 -0.000000 -0.000000
RightUpLeg -57.607646 -41.853920 15.516304
RightLeg 78.738695 -0.000000 -0.000000
RightFoot -14.404860 -25.955672 13.955267
RightToeBase -1.099074 -0.000000 0.000000
2939
root -2.414281 31.809138 -4.748288 13.048775 -38.628528 -11.221521
Spine 5.580303 1.556453 -1.101794
Head 5.898771 19.866442 11.045612
LeftShoulder -19.564160 20.612581 12.504580
LeftArm -4.450998 -41.350604 -76.538503
LeftForeArm -0.973543 -0.000000 104.014272
LeftHand -13.791175 -0.000000 30.259301
LeftHandThumb1 -26.253704 0.000000 33.147579
RightShoulder -9.669183 -1.327209 -11.676080
RightArm 0.274412 0.239868 72.095571
RightForeArm -35.336695 -0.000000 55.871374
RightHand -18.458460 -0.000000 3.788728
RightHandThumb1 -24.326973 -0.000000 -32.862282
LeftUpLeg -11.448976 12.153302 -4.462219
LeftLeg 17.407887 -0.000000 -0.000000
LeftFoot -27.290536 28.489866 -12.562889
LeftToeBase 11.186375 -0.000000 -0.000000
RightUpLeg -57.496675 -41.796993 15.404113
RightLeg 78.721844 -0.000000 -0.000000
RightFoot -14.423403 -26.015037 13.984866
RightToeBase -1.003255 -0.000000 0.000000
2940
root -2.424282 31.805810 -4.743690 13.086517 -38.751293 -11.259653
Spine 5.590777 1.609758 -1.110282
Head 5.912570 19.852105 11.033858
LeftShoulder -19.621973 20.666472 12.461919
LeftArm -4.499273 -41.410791 -76.484405
LeftForeArm -1.154254 0.000000 104.051246
LeftHand -13.759627 0.000000 30.097140
LeftHandThumb1 -26.253704 0.000000 33.147579
RightShoulder -9.703564 -1.399114 -11.660888
RightArm 0.143738 0.314858 72.263512
RightForeArm -35.265416 -0.000000 55.865505
RightHand -18.326100 -0.000000 3.863494
RightHandThumb1 -24.326973 -0.000000 -32.862282
LeftUpLeg -11.440270 12.147220 -4.446150
LeftLeg 17.402777 -0.000000 -0.000000
LeftFoot -27.379282 28.547534 -12.646651
LeftToeBase 11.703515 -0.000000 -0.000000
RightUpLeg -57.386864 -41.798367 15.291960
RightLeg 78.728164 -0.000000 -0.000000
RightFoot -14.416740 -26.014798 14.032846
RightToeBase -0.993850 -0.000000 0.000000
